<svg xmlns="http://www.w3.org/2000/svg" width="78" height="41" fill="none" xmlns:v="https://vecta.io/nano"><g fill="#60604c"><path d="M18.295 32.981c-.049-.498-.177-.948-.383-1.348a2.43 2.43 0 0 0-.855-.952c-.364-.244-.816-.361-1.356-.352-.55 0-.988.151-1.312.454s-.486.669-.486 1.099c0 .381.108.703.324.967.216.254.506.483.87.689l1.253.615 1.135.527a5.99 5.99 0 0 1 1.047.674 2.76 2.76 0 0 1 .752.894c.187.342.28.747.28 1.216a2.59 2.59 0 0 1-.427 1.465c-.285.43-.693.767-1.223 1.011-.521.244-1.155.366-1.901.366-.423 0-.87-.063-1.341-.191a4.91 4.91 0 0 1-1.268-.542l.074.615h-.899l-.059-3.224h.707c.079.85.383 1.495.914 1.934.54.43 1.184.645 1.931.645.373 0 .712-.068 1.017-.205s.545-.332.722-.586.265-.552.265-.894a1.46 1.46 0 0 0-.368-1.011 3.06 3.06 0 0 0-.914-.703l-1.15-.557-1.179-.557c-.373-.195-.712-.42-1.017-.674a2.87 2.87 0 0 1-.722-.894c-.177-.352-.265-.762-.265-1.231 0-.273.049-.562.147-.864s.265-.591.501-.864.555-.493.958-.659c.413-.176.929-.264 1.548-.264a5.61 5.61 0 0 1 1.253.161 3.53 3.53 0 0 1 1.282.572l-.059-.615h.884v3.282h-.678zm2.096 7.092v-.659c.295 0 .521-.078.678-.234s.29-.366.398-.63l.354-.908 2.978-8.103h.59l3.228 8.22c.079.186.167.44.265.762.098.313.142.581.133.806a4.08 4.08 0 0 1 .486-.029l.472-.029v.806H26.39v-.645c.344-.01.57-.083.678-.22.118-.147.162-.322.133-.527a2.34 2.34 0 0 0-.147-.615l-.442-1.187-3.611.088-.427 1.275-.192.557-.206.513c.177-.019.364-.029.56-.029l.545-.029v.821h-2.889zm2.874-3.897h3.095l-.929-2.476-.339-.952-.295-.923h-.015l-.265.806-.339.952-.914 2.593zm14.865-3.195c-.01-.557-.074-1.021-.192-1.392s-.314-.65-.59-.835c-.265-.186-.634-.273-1.105-.264h-1.061l-.015 7.619-.015.718c0 .205-.01.371-.029.498a5.7 5.7 0 0 1 .604-.029l.604-.029v.806h-3.744v-.645c.324-.02.555-.088.693-.205s.226-.293.265-.527c.039-.244.059-.542.059-.894v-7.297l-1.238.015c-.599 0-1.037.2-1.312.601s-.413 1.021-.413 1.861h-.693l.088-3.165h8.697l.088 3.165h-.693zm7.128 7.326c-.934 0-1.734-.156-2.403-.469a4.48 4.48 0 0 1-1.607-1.245c-.413-.527-.717-1.109-.914-1.744a6.41 6.41 0 0 1-.295-1.905 5.91 5.91 0 0 1 .31-1.861 5.71 5.71 0 0 1 .958-1.744c.432-.527.968-.952 1.607-1.275.648-.322 1.405-.484 2.27-.484.904 0 1.68.161 2.329.484.658.322 1.199.752 1.621 1.289a5.51 5.51 0 0 1 .943 1.729c.216.625.324 1.245.324 1.861 0 .606-.108 1.226-.324 1.861a5.53 5.53 0 0 1-.958 1.744 4.75 4.75 0 0 1-1.592 1.275c-.639.322-1.395.483-2.27.483zm.074-.762c.57 0 1.061-.127 1.474-.381a3.09 3.09 0 0 0 1.032-1.011 4.73 4.73 0 0 0 .604-1.407 6.4 6.4 0 0 0 .192-1.538 7.26 7.26 0 0 0-.221-1.802 5.03 5.03 0 0 0-.678-1.568c-.295-.469-.663-.835-1.105-1.099-.442-.274-.953-.41-1.533-.41-.57 0-1.066.132-1.489.396s-.767.611-1.032 1.04c-.265.42-.467.889-.604 1.407-.128.508-.192 1.021-.192 1.538a6.87 6.87 0 0 0 .206 1.612 5.87 5.87 0 0 0 .634 1.582c.285.488.649.884 1.091 1.187.452.303.993.454 1.621.454zm6.609.528v-.645c.324-.02.555-.088.693-.205.147-.117.241-.293.28-.527s.059-.532.059-.894v-6.095l.015-.615.03-.527-.545.029-.531.029v-.806l1.813-.015h1.843c.924 0 1.685.107 2.285.322.599.205 1.047.513 1.341.923.305.41.452.928.442 1.553a2.78 2.78 0 0 1-.236 1.172c-.167.381-.447.723-.84 1.026s-.934.532-1.621.689c.197.117.373.278.531.483l.486.689.899 1.377.516.747a1.9 1.9 0 0 0 .531.484 1.46 1.46 0 0 0 .708.161v.645h-2.049a4.37 4.37 0 0 1-.663-.689l-.575-.85-1.017-1.641-.413-.63c-.138-.225-.29-.415-.457-.572h-.472-.457v2.418l-.015.718c0 .205-.01.371-.029.498l.368-.015.398-.029.354-.015v.806h-3.67zm3.449-5.099c.54-.01 1.002-.093 1.386-.249.383-.166.678-.415.884-.747.206-.342.31-.781.31-1.319 0-.401-.059-.738-.177-1.011a1.62 1.62 0 0 0-.501-.659c-.216-.176-.477-.298-.781-.366-.295-.078-.614-.117-.958-.117-.315 0-.545.059-.693.176-.138.117-.226.288-.265.513s-.059.513-.059.864v2.872l.413.044a3.36 3.36 0 0 0 .442 0zm10.016-4.513c-.314.01-.545.078-.693.205-.147.117-.241.293-.28.527-.039.225-.059.523-.059.894v6.022l-.015.718c0 .205-.01.371-.029.498.167-.02.349-.029.545-.029l.531-.029v.806H61.78v-.645c.324-.02.555-.088.693-.205.147-.117.241-.293.28-.527s.059-.532.059-.894v-6.095l.015-.615.029-.527-.545.029-.531.029v-.806h3.626v.645zM39.913 3.683c.089-.05.159-.035.207.046.05.071.035.136-.045.196a6.98 6.98 0 0 1-1.232.663 7.36 7.36 0 0 1-1.254.391 9.12 9.12 0 0 1-1.269.18l-1.275.03a28.08 28.08 0 0 0-.564.639l-1.202 1.415-1.544 1.88-1.588 2.062-1.336 1.94c-.386.607-.651 1.114-.795 1.519s-.128.675.045.804.571.06 1.195-.211c.396-.17.816-.391 1.262-.662l1.336-.864 1.306-.948 1.165-.918.92-.767.586-.505c.078-.06.149-.055.207.016s.055.14-.015.211l-.371.331-.786.669-1.084.88-1.276.962-1.366.926-1.344.767c-.431.216-.833.374-1.21.473s-.703.12-.98.06c-.356-.09-.554-.298-.594-.625s.035-.732.222-1.219a10.31 10.31 0 0 1 .831-1.625l1.217-1.828 1.387-1.836 1.351-1.647 1.099-1.263.631-.7-1.411-.098-1.387-.046c-.451.005-.888.047-1.314.128a4.26 4.26 0 0 0-1.187.407c-.078.041-.144.016-.194-.076-.04-.08-.015-.145.073-.196a4.14 4.14 0 0 1 1.277-.429c.456-.076.928-.118 1.418-.128a13.82 13.82 0 0 1 1.484.052L34 4.853l.594-.663.364-.407c.093-.099.179-.17.252-.211s.169-.063.282-.068a4 4 0 0 1 .422.008l.683.016-1.306 1.369 1.18-.052a8.66 8.66 0 0 0 1.172-.188 7.19 7.19 0 0 0 1.15-.369 6.21 6.21 0 0 0 1.114-.609l.003.005z"/><path d="M39.75 1.125c.02-.099.074-.14.164-.12.099 0 .139.05.118.15-.04.341.02.639.179.896a2.33 2.33 0 0 0 .623.663c.257.186.546.344.868.473a8.45 8.45 0 0 0 .913.315c.831-.592 1.583-.998 2.256-1.219s1.257-.314 1.751-.278.9.17 1.217.407.531.519.646.85.127.683.037 1.054-.292.702-.608.994c-.297.271-.594.464-.89.579a2.36 2.36 0 0 1-.853.174 1.56 1.56 0 0 1-.728-.166c-.214-.11-.379-.251-.498-.421s-.179-.366-.179-.587.078-.446.237-.677l-1.603-.226c-.594.442-1.192.951-1.797 1.527l-1.818 1.88-1.825 2.152-1.803 2.355.482-.391.72-.527.838-.519c.292-.166.569-.29.831-.375s.498-.115.705-.09a.6.6 0 0 1 .474.339c.089.17.092.383.007.639s-.217.535-.401.834l-.623.926-.661.91-.513.79c-.134.237-.19.421-.17.557s.135.211.349.226.566-.058 1.062-.218c.643-.211 1.344-.489 2.1-.834l2.234-1.136 2.049-1.264c.633-.431 1.147-.828 1.544-1.189.068-.06.139-.055.207.016.06.071.053.14-.015.211-.356.322-.761.647-1.217.978l-1.447.956-1.566.888-1.573.774-.638.271-.831.331-.92.301-.898.211c-.282.051-.533.065-.75.046s-.376-.09-.474-.211c-.108-.131-.137-.319-.082-.565s.155-.522.304-.828.327-.626.534-.962l.594-.962.483-.828c.134-.246.202-.431.207-.557s-.072-.178-.23-.158-.436.145-.831.376c-.297.17-.594.364-.89.579l-.838.662-.713.662c-.212.216-.379.409-.497.579l-.371.016c-.159.009-.304.009-.437 0a.91.91 0 0 1-.312-.068c-.074-.035-.077-.098-.007-.188l.943-1.317.913-1.211 2.85-3.437 2.449-2.429.609-.535.579-.459c-.317-.09-.636-.208-.957-.353a3.69 3.69 0 0 1-.861-.535c-.252-.211-.451-.456-.594-.737s-.195-.603-.155-.962l-.003-.009zm5.506 2.798c.197-.161.394-.263.586-.309s.361-.052.504-.022.25.085.319.166.073.158.015.233-.194.137-.401.188-.514.065-.92.046c-.257.26-.354.524-.289.79s.227.468.489.609.591.183.987.128.786-.273 1.172-.655a1.91 1.91 0 0 0 .519-.82c.089-.295.093-.571.015-.828s-.241-.472-.483-.647-.554-.271-.935-.285-.833.071-1.357.256-1.109.51-1.751.97l1.529.18v.002z"/><path d="M53.626 10.575c.02-.021.05-.03.088-.03a.13.13 0 0 1 .149.15c0 .04-.015.076-.045.106-.01.009-.144.123-.401.339l-1.01.804-1.409 1.046-1.596 1.046a12.22 12.22 0 0 1-1.573.798c-.509.211-.957.316-1.344.316-.346 0-.618-.103-.817-.309s-.297-.489-.297-.85c0-.251.05-.524.149-.82s.232-.596.401-.902.361-.604.579-.894a7.82 7.82 0 0 1 .683-.798c.297-.301.596-.547.898-.737s.566-.286.795-.286c.139 0 .24.039.304.12a.47.47 0 0 1 .097.301c0 .251-.104.497-.312.737s-.437.459-.689.655l-.72.511c-.227.145-.361.248-.401.309-.317.472-.554.883-.713 1.233s-.237.642-.237.872c0 .352.179.527.534.527.267 0 .608-.093 1.024-.278s.861-.418 1.336-.7l1.448-.94 1.366-.986 1.09-.835.623-.505h.002zm-6.129.962a5.2 5.2 0 0 0 .601-.421l.468-.421a2.9 2.9 0 0 0 .297-.345c.068-.099.104-.17.104-.211 0-.021-.01-.03-.03-.03-.03 0-.092.025-.185.076a2.03 2.03 0 0 0-.341.248 4.46 4.46 0 0 0-.437.443 4.63 4.63 0 0 0-.476.662z"/></g><path d="M0 10.02h19.922m39.385.117H78M18.295 32.981c-.049-.498-.177-.948-.383-1.348s-.491-.718-.855-.952c-.364-.244-.816-.361-1.356-.352-.55 0-.988.151-1.312.454s-.486.669-.486 1.099c0 .381.108.703.324.967.216.254.506.483.87.689l1.253.615 1.135.527a5.99 5.99 0 0 1 1.047.674c.314.244.565.542.752.894.187.342.28.747.28 1.216a2.59 2.59 0 0 1-.427 1.465c-.285.43-.693.767-1.223 1.011-.521.244-1.155.366-1.901.366-.423 0-.87-.063-1.341-.191a4.91 4.91 0 0 1-1.268-.542l.074.615h-.899l-.059-3.224h.707c.079.85.383 1.495.914 1.934.54.43 1.184.645 1.931.645.373 0 .712-.068 1.017-.205s.545-.332.722-.586.265-.552.265-.894c0-.401-.123-.737-.368-1.011a3.06 3.06 0 0 0-.914-.703l-1.15-.557-1.179-.557c-.373-.195-.712-.42-1.017-.674s-.545-.552-.722-.894c-.177-.352-.265-.762-.265-1.231 0-.273.049-.562.147-.864s.265-.591.501-.864.555-.493.958-.659c.413-.176.929-.264 1.548-.264.373 0 .791.054 1.253.161.472.108.899.298 1.282.572l-.059-.615h.884v3.282h-.678zm2.096 7.092v-.659c.295 0 .521-.078.678-.234s.29-.366.398-.63l.354-.908 2.978-8.103h.59l3.228 8.22c.079.186.167.44.265.762.098.313.142.581.133.806.167-.02.329-.029.486-.029l.472-.029v.806H26.39v-.645c.344-.01.57-.083.678-.22.118-.147.162-.322.133-.527a2.34 2.34 0 0 0-.147-.615l-.442-1.187-3.611.088-.427 1.275-.192.557-.206.513c.177-.019.364-.029.56-.029l.545-.029v.821h-2.889zm2.874-3.897h3.095l-.929-2.476-.339-.952-.295-.923h-.015l-.265.806-.339.952-.914 2.593zm14.865-3.194c-.01-.557-.074-1.021-.192-1.392s-.314-.65-.59-.835c-.265-.186-.634-.273-1.105-.264h-1.061l-.015 7.619-.015.718c0 .205-.01.371-.029.498.187-.02.388-.029.604-.029l.604-.029v.806h-3.744v-.645c.324-.02.555-.088.693-.205s.226-.293.265-.527c.039-.244.059-.542.059-.894v-7.297l-1.238.015c-.599 0-1.037.2-1.312.601s-.413 1.021-.413 1.861h-.693l.088-3.165h8.697l.088 3.165h-.693zm7.128 7.326c-.934 0-1.734-.156-2.403-.469-.658-.313-1.194-.728-1.607-1.245-.413-.527-.717-1.109-.914-1.744a6.41 6.41 0 0 1-.295-1.905 5.91 5.91 0 0 1 .31-1.861c.216-.635.536-1.216.958-1.744.432-.527.968-.952 1.607-1.275.648-.322 1.405-.484 2.27-.484.904 0 1.68.161 2.329.484.658.322 1.199.752 1.621 1.289a5.51 5.51 0 0 1 .943 1.729c.216.625.324 1.245.324 1.861 0 .606-.108 1.226-.324 1.861a5.53 5.53 0 0 1-.958 1.744 4.75 4.75 0 0 1-1.592 1.275c-.639.322-1.395.483-2.27.483zm.074-.762c.57 0 1.061-.127 1.474-.381.422-.254.767-.591 1.032-1.011a4.73 4.73 0 0 0 .604-1.407 6.4 6.4 0 0 0 .192-1.538c0-.625-.074-1.226-.221-1.802a5.03 5.03 0 0 0-.678-1.568c-.295-.469-.663-.835-1.105-1.099-.442-.274-.953-.41-1.533-.41-.57 0-1.066.132-1.489.396s-.767.611-1.032 1.04c-.265.42-.467.889-.604 1.407-.128.508-.192 1.021-.192 1.538 0 .508.069 1.045.206 1.612a5.87 5.87 0 0 0 .634 1.582c.285.488.649.884 1.091 1.187.452.303.993.454 1.621.454zm6.609.527v-.645c.324-.02.555-.088.693-.205.147-.117.241-.293.28-.527s.059-.532.059-.894v-6.095l.015-.615.03-.527-.545.029-.531.029v-.806l1.813-.015h1.843c.924 0 1.685.107 2.285.322.599.205 1.047.513 1.341.923.305.41.452.928.442 1.553a2.78 2.78 0 0 1-.236 1.172c-.167.381-.447.723-.84 1.026s-.934.532-1.621.689c.197.117.373.278.531.483l.486.689.899 1.377.516.747c.157.205.334.366.531.484.197.107.432.161.708.161v.645h-2.049a4.37 4.37 0 0 1-.663-.689l-.575-.85-1.017-1.641-.413-.63c-.138-.225-.29-.415-.457-.572h-.472-.457v2.418l-.015.718c0 .205-.01.371-.029.498l.368-.015.398-.029.354-.015v.806h-3.67zm3.449-5.099c.54-.01 1.002-.093 1.386-.249.383-.166.678-.415.884-.747.206-.342.31-.781.31-1.319 0-.401-.059-.738-.177-1.011a1.62 1.62 0 0 0-.501-.659c-.216-.176-.477-.298-.781-.366-.295-.078-.614-.117-.958-.117-.315 0-.545.059-.693.176-.138.117-.226.288-.265.513s-.059.513-.059.864v2.872l.413.044a3.36 3.36 0 0 0 .442 0zm10.015-4.513c-.314.01-.545.078-.693.205-.147.117-.241.293-.28.527-.039.225-.059.523-.059.894v6.022l-.015.718c0 .205-.01.371-.029.498.167-.02.349-.029.545-.029l.531-.029v.806h-3.626v-.645c.324-.02.555-.088.693-.205.147-.117.241-.293.28-.527s.059-.532.059-.894v-6.095l.015-.615.029-.527-.545.029-.531.029v-.806h3.626v.645zM39.913 3.683c.089-.05.159-.035.207.046.05.071.035.136-.045.196a6.98 6.98 0 0 1-1.232.663 7.36 7.36 0 0 1-1.254.391c-.421.09-.843.15-1.269.18l-1.275.03a28.08 28.08 0 0 0-.564.639l-1.202 1.415-1.544 1.88-1.588 2.062-1.336 1.94c-.386.607-.651 1.114-.795 1.519s-.128.675.045.804.571.06 1.195-.211c.396-.17.816-.391 1.262-.662l1.336-.864 1.306-.948 1.165-.918.92-.767.586-.505c.078-.06.149-.055.207.016s.055.14-.015.211l-.371.331-.786.669-1.084.88-1.276.962-1.366.926-1.344.767c-.431.216-.833.374-1.21.473s-.703.12-.98.06c-.356-.09-.554-.298-.594-.625s.035-.732.222-1.219a10.31 10.31 0 0 1 .831-1.625l1.217-1.828 1.387-1.836 1.351-1.647 1.099-1.263.631-.7-1.411-.098-1.387-.046a7.48 7.48 0 0 0-1.314.128 4.26 4.26 0 0 0-1.187.407c-.078.041-.144.016-.194-.076-.04-.08-.015-.145.073-.196.396-.211.821-.353 1.277-.429s.928-.118 1.418-.128a13.82 13.82 0 0 1 1.484.052l1.491.114.594-.663.364-.407c.093-.099.179-.17.252-.211s.169-.063.282-.068a4 4 0 0 1 .422.008l.683.016-1.306 1.369 1.18-.052c.391-.035.781-.098 1.172-.188s.775-.213 1.15-.369.746-.358 1.114-.609l.003.005zm-.163-2.558c.02-.099.074-.14.164-.12.099 0 .139.05.119.15-.04.341.02.639.179.896a2.33 2.33 0 0 0 .623.663c.257.186.546.344.868.473a8.45 8.45 0 0 0 .913.315c.831-.592 1.583-.998 2.256-1.219s1.257-.314 1.751-.278.9.17 1.217.407.531.519.646.85.127.683.037 1.054-.292.702-.608.994c-.297.271-.594.464-.89.579a2.36 2.36 0 0 1-.853.174 1.56 1.56 0 0 1-.728-.166c-.214-.11-.379-.251-.498-.421s-.179-.366-.179-.587.078-.446.237-.677l-1.603-.226c-.594.442-1.192.951-1.797 1.527l-1.818 1.88-1.825 2.152-1.803 2.355.482-.391.72-.527.838-.519c.292-.166.569-.29.831-.375s.498-.115.705-.09a.6.6 0 0 1 .474.339c.089.17.092.383.007.639s-.217.535-.401.834l-.623.926-.661.91-.513.79c-.134.237-.19.421-.17.557s.135.211.349.226.566-.058 1.062-.218c.643-.211 1.344-.489 2.1-.834l2.234-1.136 2.049-1.264c.633-.431 1.147-.828 1.544-1.189.068-.06.139-.055.207.016.06.071.053.14-.015.211-.356.322-.761.647-1.217.978l-1.447.956-1.566.888-1.573.774-.638.271-.831.331-.92.301-.898.211c-.282.051-.533.065-.75.046s-.376-.09-.474-.211c-.108-.131-.137-.319-.082-.565s.155-.522.304-.828.327-.626.534-.962l.594-.962.483-.828c.134-.246.202-.431.207-.557s-.072-.178-.23-.158-.436.145-.831.376c-.297.17-.594.364-.89.579l-.838.662-.713.662c-.212.216-.379.409-.497.579l-.371.016c-.159.009-.304.009-.437 0a.91.91 0 0 1-.312-.068c-.074-.035-.077-.098-.007-.188l.943-1.317.913-1.211 2.85-3.437 2.449-2.429.609-.535.579-.459c-.317-.09-.636-.208-.957-.353a3.69 3.69 0 0 1-.861-.535c-.252-.211-.451-.456-.594-.737s-.195-.603-.155-.962l-.003-.009zm5.506 2.798c.197-.161.394-.263.586-.309s.361-.052.504-.022.25.085.319.166.073.158.015.233-.194.137-.401.188-.514.065-.92.046c-.257.26-.354.524-.289.79s.227.468.489.609.591.183.987.128.786-.273 1.172-.655a1.91 1.91 0 0 0 .519-.82c.089-.295.093-.571.015-.828s-.241-.472-.483-.647-.554-.271-.935-.285-.833.071-1.357.256-1.109.51-1.751.97l1.529.18v.002zm8.37 6.651c.02-.021.05-.03.088-.03a.13.13 0 0 1 .149.15c0 .04-.015.076-.045.106-.01.009-.144.123-.401.339l-1.01.804-1.409 1.046-1.596 1.046c-.539.322-1.064.587-1.573.798s-.957.316-1.344.316c-.346 0-.618-.103-.817-.309s-.297-.489-.297-.85c0-.251.05-.524.149-.82s.232-.596.401-.902.361-.604.579-.894a7.82 7.82 0 0 1 .683-.798c.297-.301.596-.547.898-.737s.566-.286.795-.286c.139 0 .24.039.304.12a.47.47 0 0 1 .097.301c0 .251-.104.497-.312.737s-.437.459-.689.655l-.72.511c-.227.145-.361.248-.401.309-.317.472-.554.883-.713 1.233s-.237.642-.237.872c0 .352.179.527.534.527.267 0 .608-.093 1.024-.278s.861-.418 1.336-.7l1.448-.94 1.366-.986 1.09-.835.623-.505h.002zm-6.129.962a5.2 5.2 0 0 0 .601-.421l.468-.421a2.9 2.9 0 0 0 .297-.345c.068-.099.104-.17.104-.211 0-.021-.01-.03-.03-.03-.03 0-.092.025-.185.076a2.03 2.03 0 0 0-.341.248 4.46 4.46 0 0 0-.437.443 4.63 4.63 0 0 0-.476.662z" stroke="#60604c" stroke-width=".614" stroke-miterlimit="10"/></svg>